
<svg width="223px" height="253px" viewBox="0 0 223 253" version="1.1" xmlns="http://www.w3.org/2000/svg" xmlns:xlink="http://www.w3.org/1999/xlink">
    <!-- Generator: Sketch 51.2 (57519) - http://www.bohemiancoding.com/sketch -->
    <desc>Created with Sketch.</desc>
    <defs></defs>
    <g id="Page-1" stroke="none" stroke-width="1" fill="none" fill-rule="evenodd">
        <g id="flat-kawaii-fruit" transform="translate(-793.358149, -194.545467)" fill-rule="nonzero">
            <g id="Group" transform="translate(793.000000, 194.000000)">
                <circle id="Oval" fill="#9ABC3C" cx="112.122" cy="141.439" r="111.222"></circle>
                <g transform="translate(48.000000, 152.000000)">
                    <g>
                        <g transform="translate(11.000000, 0.000000)" fill="#2E1F1C">
                            <g id="Oval">
                                <circle cx="9.301" cy="9.25" r="8.595"></circle>
                                <circle cx="97.916" cy="9.25" r="8.595"></circle>
                            </g>
                            <path d="M73.045,29.589 C73.045,40.075 64.543,48.577 54.057,48.577 C43.569,48.577 35.067,40.075 35.067,29.589" id="Shape"></path>
                        </g>
                        <g transform="translate(0.000000, 26.000000)" fill="#FF665A" id="Oval">
                            <ellipse cx="114.341" cy="9.014" rx="14.769" ry="8.138"></ellipse>
                            <ellipse cx="14.875" cy="9.014" rx="14.769" ry="8.138"></ellipse>
                        </g>
                    </g>
                    <g transform="translate(0.000000, 26.000000)" fill="#FF9A55" id="Oval">
                        <ellipse cx="114.341" cy="9.014" rx="14.769" ry="8.138"></ellipse>
                        <ellipse cx="14.875" cy="9.014" rx="14.769" ry="8.138"></ellipse>
                    </g>
                </g>
                <g transform="translate(31.000000, 0.000000)" id="Shape">
                    <path d="M33.2,48.152 C49.779,52.952 66.834,48.254 78.61,37.295 L0.615,14.712 C4.717,30.269 16.622,43.353 33.2,48.152 Z" fill="#3EBA79"></path>
                    <path d="M0.423,14.031 C0.481,14.26 0.556,14.483 0.615,14.713 L78.61,37.296 C78.785,37.135 78.967,36.986 79.138,36.822 C75.21,20.965 63.181,7.571 46.361,2.7 C29.541,-2.171 12.216,2.724 0.423,14.031 Z" fill="#30A565"></path>
                </g>
                <path d="M109,38 L109,5.037 C109,3.83 111.003,2.852 113,2.852 C114.997,2.852 117,3.83 117,5.037 L117,38" id="Shape" fill="#2E1F1C"></path>
                <g opacity="0.3" transform="translate(138.000000, 66.000000)" fill="#FFFFFF" id="Oval">
                    <circle cx="18.614" cy="18.835" r="18.085"></circle>
                </g>
            </g>
        </g>
    </g>
</svg>