<?xml version="1.0" encoding="utf-8"?>
<!-- Generator: Adobe Illustrator 16.0.0, SVG Export Plug-In . SVG Version: 6.00 Build 0)  -->
<!DOCTYPE svg PUBLIC "-//W3C//DTD SVG 1.1//EN" "http://www.w3.org/Graphics/SVG/1.1/DTD/svg11.dtd">
<svg version="1.1" id="Layer_1" xmlns="http://www.w3.org/2000/svg" xmlns:xlink="http://www.w3.org/1999/xlink" x="0px" y="0px"
	 width="1400px" height="980px" viewBox="0 0 1400 980" enable-background="new 0 0 1400 980" xml:space="preserve">
<rect fill="#F9EDCF" width="1400" height="980"/>
<g opacity="0.06">
	<path d="M699.717,215h-28.936h-13.563h-0.013c0.001-0.332,0.013-1,0.013-1H199.427c0,0,0.011,0.668,0.013,1h-0.013h-13.563h-28.936
		c0,148,121.747,271.396,271.395,271.396C577.969,486.396,699.717,363,699.717,215z"/>
	<path d="M674.846,741.168c-1.188,0-2.363,0.054-3.532,0.131l-60.837-193.565c1.177-4.445,1.731-9.051,1.587-13.674
		c-0.005-0.237,0.001-0.474-0.009-0.711c-14.524-7.479-32.526-7.235-47.264,2.224c-14.734,9.462-22.45,25.729-21.698,42.048
		c0.211,0.107,0.427,0.197,0.641,0.304c14.413,7.149,32.099,6.795,46.623-2.53c0.639-0.41,1.247-0.848,1.859-1.283L539.66,741.328
		c-1.297-0.095-2.604-0.16-3.925-0.16c-29.166,0-52.811,23.645-52.811,52.811s23.645,52.811,52.811,52.811
		c29.167,0,52.811-23.645,52.811-52.811c0-25.957-18.734-47.525-43.416-51.96l54.989-174.96c2.975-3.339,5.404-7.049,7.29-10.99
		l58.421,185.882c-24.869,4.28-43.795,25.938-43.795,52.028c0,29.166,23.645,52.811,52.811,52.811
		c29.167,0,52.811-23.645,52.811-52.811S704.013,741.168,674.846,741.168z"/>
	<path d="M807.9,363.439c0,61.427,49.795,111.222,111.222,111.222c61.426,0,111.222-49.795,111.222-111.222
		c0-59.79-47.182-108.554-106.344-111.108v-25.295c0-1.207-2.003-2.185-4-2.185s-4,0.978-4,2.185v25.228
		c-0.336,0.009-0.67,0.026-1.006,0.038c-5.277-12.93-16.178-23.418-30.633-27.604c-16.82-4.87-34.146,0.025-45.938,11.332
		c0.058,0.229,0.133,0.452,0.192,0.682c3.43,13.009,12.331,24.268,24.844,30.42C830.244,286.371,807.9,322.294,807.9,363.439z"/>
	<path d="M1144,266.905v35.149c-25,20.386-41.457,51.64-41.457,86.705c0,61.426,49.865,111.222,111.291,111.222
		s111.394-49.795,111.394-111.222c0-35.89-17.228-67.789-43.228-88.125v-33.728c0-36.876-30.048-65.905-66.924-65.905H1215v-31.834
		c0-1.207-1.503-2.186-3.5-2.186c-1.998,0-3.5,0.979-3.5,2.186v30.705c-4.2-15.381-16.038-28.284-32.475-33.043
		c-16.82-4.869-34.145,0.026-45.938,11.333c0.057,0.228,0.134,0.452,0.193,0.681c4.101,15.557,16.006,28.641,32.584,33.44
		c2.864,0.829,5.741,1.356,8.604,1.635C1154.615,225.842,1144,244.987,1144,266.905z"/>
	<path d="M1255.269,637.635c-3.293-10.716-12.771-18.398-24.269-19.488v-32.003c0-1.208-1.503-2.187-3.5-2.187s-3.5,0.979-3.5,2.187
		v29.722c-4.429-14.946-16.113-27.402-32.197-32.061c-16.82-4.869-34.146,0.026-45.938,11.332c0.058,0.229,0.133,0.452,0.193,0.683
		c4.101,15.557,16.006,28.64,32.585,33.439c8.66,2.508,17.444,2.401,25.545,0.187c-1.895,2.58-3.368,5.497-4.285,8.682
		c-40.555,12.245-70.093,49.697-70.093,94.248c0,44.598,29.604,82.856,70.226,95.06c3.568,11.564,14.34,20.565,27.078,20.565h1.072
		c12.549,0,23.173-8.85,26.899-20.15c41.533-11.627,72.007-50.412,72.007-95.659
		C1327.092,687.014,1296.709,649.321,1255.269,637.635z"/>
	<path d="M943,624.61v-30.871c0-1.207-1.002-2.186-3-2.186s-3,0.979-3,2.186v30.628c-0.098-0.002-0.195-0.003-0.293-0.004
		c-4.22-15.345-16.046-28.212-32.452-32.963c-16.82-4.869-34.146,0.026-45.938,11.333c0.057,0.229,0.133,0.451,0.193,0.681
		c3.75,14.227,14.04,26.364,28.448,32.01c-37.158,18.007-62.782,56.082-62.782,100.145c0,61.426,49.797,111.221,111.222,111.221
		c61.427,0,111.222-49.795,111.222-111.221C1046.619,676.697,1000.88,628.519,943,624.61z"/>
	<path d="M387.393,770.865c-0.867-1.915-3.12-2.764-5.036-1.898l-8.898,4.027c-10.587,2.604-21.645,4.01-33.035,4.01
		c-76.252,0-138.066-61.813-138.066-138.066c0-33.055,11.635-63.377,31.013-87.141l19.742-12.228
		c6.176-3.826,7.936-12.167,4.11-18.344c-3.824-6.177-12.077-8.315-18.252-4.491l-18.3,11.333
		c-54.502,23.914-92.572,78.349-92.572,141.681c0,85.414,69.242,154.655,154.656,154.655c36.628,0,70.276-12.739,96.769-34.022
		c0.528,0.002,1.064-0.098,1.576-0.33l8.962-4.054c1.915-0.865,2.765-3.118,1.899-5.034L387.393,770.865z"/>
</g>
<g>
	<g>
		<g>
			<path fill="#EE4230" d="M185.427,186.008c0,125.652,102.48,228.896,228.896,228.896S643.217,311.66,643.217,186.008"/>
			<path fill="#9ABC3C" d="M414.322,458.396C264.675,458.396,142.928,335,142.928,187h84.999c0,103,83.616,186.397,186.396,186.397
				C517.102,373.397,600.718,290,600.718,187h84.999C685.717,335,563.969,458.396,414.322,458.396z"/>
		</g>
		<g>
			<path fill="#EE4230" d="M185.427,186.008c0,125.652,102.48,228.896,228.896,228.896S643.217,311.66,643.217,186.008"/>
			<path fill="#FFDAD7" d="M414.322,429.459C280.63,429.459,171.863,321,171.863,187h27.127c0,117,96.597,215.333,215.332,215.333
				S629.654,304,629.654,187h27.127C656.781,321,548.015,429.459,414.322,429.459z"/>
		</g>
		<g>
			<path fill="#EE4230" d="M185.427,187c0,124,102.48,228.896,228.896,228.896S643.217,311,643.217,187H185.427z"/>
		</g>
	</g>
	<g>
		<g>
			<g>
				<g>
					<circle fill="#2E1F1C" cx="346.99" cy="267.236" r="13.062"/>
				</g>
				<g>
					<circle fill="#2E1F1C" cx="481.654" cy="267.236" r="13.061"/>
				</g>
			</g>
			<g>
				<path fill="#2E1F1C" d="M443.858,298.143c0,15.935-12.92,28.856-28.856,28.856l0,0c-15.938,0-28.858-12.921-28.858-28.856"/>
			</g>
		</g>
		<g>
			<g>
				<ellipse fill="#FF665A" cx="489.898" cy="306.388" rx="22.444" ry="12.365"/>
			</g>
			<g>
				<ellipse fill="#FF665A" cx="338.745" cy="306.388" rx="22.444" ry="12.365"/>
			</g>
		</g>
	</g>
</g>
<g>
	<g>
		<g>
			<g>
				<circle fill="#E8291A" cx="521.735" cy="765.979" r="52.811"/>
			</g>
			<g>
				<g>
					<g>
						<g>
							<circle fill="#2E1F1C" cx="493.657" cy="767.049" r="5.47"/>
						</g>
						<g>
							<circle fill="#2E1F1C" cx="550.059" cy="767.049" r="5.47"/>
						</g>
					</g>
					<g>
						<path fill="#2E1F1C" d="M534.229,779.993c0,6.675-5.412,12.086-12.087,12.086l0,0c-6.674,0-12.085-5.411-12.085-12.086"/>
					</g>
				</g>
				<g>
					<g>
						<ellipse fill="#FF665A" cx="553.512" cy="783.446" rx="9.4" ry="5.182"/>
					</g>
					<g>
						<ellipse fill="#FF665A" cx="490.205" cy="783.446" rx="9.4" ry="5.182"/>
					</g>
				</g>
			</g>
		</g>
		<g>
			<g>
				<circle fill="#E8291A" cx="660.846" cy="765.979" r="52.811"/>
			</g>
			<g>
				<g>
					<g>
						<g>
							<circle fill="#2E1F1C" cx="632.91" cy="767.049" r="5.47"/>
						</g>
						<g>
							<circle fill="#2E1F1C" cx="689.313" cy="767.049" r="5.471"/>
						</g>
					</g>
					<g>
						<path fill="#2E1F1C" d="M673.482,779.993c0,6.675-5.412,12.086-12.086,12.086l0,0c-6.674,0-12.086-5.411-12.086-12.086"/>
					</g>
				</g>
				<g>
					<g>
						<ellipse fill="#FF665A" cx="692.765" cy="783.446" rx="9.4" ry="5.182"/>
					</g>
					<g>
						<ellipse fill="#FF665A" cx="629.458" cy="783.446" rx="9.4" ry="5.182"/>
					</g>
				</g>
			</g>
		</g>
	</g>
	<g>
		<polygon fill="#2E1F1C" points="528.567,722.173 523.391,720.547 591.491,503.872 659.19,719.269 654.013,720.895 
			591.491,521.966 		"/>
	</g>
	<g>
		<g>
			<path fill="#3EBA79" d="M576.357,547.394c14.524-9.323,22.208-25.256,21.707-41.334l-68.33,43.864
				C544.147,557.073,561.833,556.719,576.357,547.394z"/>
		</g>
		<g>
			<path fill="#30A565" d="M529.093,549.62c0.211,0.107,0.427,0.197,0.641,0.304l68.33-43.864c-0.005-0.237,0.001-0.474-0.009-0.711
				c-14.524-7.479-32.526-7.235-47.264,2.224C536.056,517.034,528.34,533.301,529.093,549.62z"/>
		</g>
	</g>
</g>
<g>
	<g>
		<circle fill="#9ABC3C" cx="905.122" cy="335.439" r="111.222"/>
	</g>
	<g>
		<g>
			<g>
				<g>
					<g>
						<circle fill="#2E1F1C" cx="861.301" cy="355.25" r="8.595"/>
					</g>
					<g>
						<circle fill="#2E1F1C" cx="949.916" cy="355.25" r="8.595"/>
					</g>
				</g>
				<g>
					<path fill="#2E1F1C" d="M925.045,375.589c0,10.486-8.502,18.988-18.988,18.988l0,0c-10.488,0-18.99-8.502-18.99-18.988"/>
				</g>
			</g>
			<g>
				<g>
					<ellipse fill="#FF665A" cx="955.341" cy="381.014" rx="14.769" ry="8.138"/>
				</g>
				<g>
					<ellipse fill="#FF665A" cx="855.875" cy="381.014" rx="14.769" ry="8.138"/>
				</g>
			</g>
		</g>
		<g>
			<g>
				<ellipse fill="#FF9A55" cx="955.341" cy="381.014" rx="14.769" ry="8.138"/>
			</g>
			<g>
				<ellipse fill="#FF9A55" cx="855.875" cy="381.014" rx="14.769" ry="8.138"/>
			</g>
		</g>
	</g>
	<g>
		<g>
			<path fill="#3EBA79" d="M857.2,242.152c16.579,4.8,33.634,0.102,45.41-10.857l-77.995-22.583
				C828.717,224.269,840.622,237.353,857.2,242.152z"/>
		</g>
		<g>
			<path fill="#30A565" d="M824.423,208.031c0.058,0.229,0.133,0.452,0.192,0.682l77.995,22.583c0.175-0.161,0.357-0.31,0.528-0.474
				c-3.928-15.857-15.957-29.251-32.777-34.122C853.541,191.829,836.216,196.724,824.423,208.031z"/>
		</g>
	</g>
	<g>
		<path fill="#2E1F1C" d="M902,232v-32.963c0-1.207,2.003-2.185,4-2.185l0,0c1.997,0,4,0.978,4,2.185V232"/>
	</g>
	<g opacity="0.3">
		<circle fill="#FFFFFF" cx="949.614" cy="278.835" r="18.085"/>
	</g>
</g>
<g>
	<g>
		<path fill="#F9B03A" d="M1268,272.633v-33.728c0-36.876-30.048-65.905-66.924-65.905h-4.153
			c-36.878,0-66.923,29.029-66.923,65.905v35.149c-25,20.386-41.457,51.64-41.457,86.705c0,61.426,49.865,111.221,111.291,111.221
			s111.394-49.795,111.394-111.221C1311.228,324.869,1294,292.97,1268,272.633z"/>
	</g>
	<g>
		<g>
			<g>
				<g>
					<g>
						<circle fill="#2E1F1C" cx="1156.083" cy="364.292" r="8.595"/>
					</g>
					<g>
						<circle fill="#2E1F1C" cx="1244.698" cy="364.292" r="8.594"/>
					</g>
				</g>
				<g>
					<path fill="#2E1F1C" d="M1219.827,384.631c0,10.487-8.502,18.989-18.989,18.989l0,0c-10.487,0-18.989-8.502-18.989-18.989"/>
				</g>
			</g>
			<g>
				<g>
					<ellipse fill="#FF665A" cx="1250.123" cy="390.057" rx="14.769" ry="8.138"/>
				</g>
				<g>
					<ellipse fill="#FF665A" cx="1150.658" cy="390.057" rx="14.769" ry="8.138"/>
				</g>
			</g>
		</g>
		<g>
			<g>
				<ellipse fill="#FF9A55" cx="1250.123" cy="390.057" rx="14.769" ry="8.138"/>
			</g>
			<g>
				<ellipse fill="#FF9A55" cx="1150.658" cy="390.057" rx="14.769" ry="8.138"/>
			</g>
		</g>
	</g>
	<g>
		<g>
			<path fill="#3EBA79" d="M1148.365,184.281c16.578,4.8,33.634,0.101,45.411-10.857l-77.995-22.583
				C1119.882,166.398,1131.787,179.481,1148.365,184.281z"/>
		</g>
		<g>
			<path fill="#30A565" d="M1115.588,150.16c0.057,0.228,0.134,0.452,0.193,0.681l77.995,22.583c0.173-0.161,0.355-0.31,0.528-0.474
				c-3.929-15.858-15.957-29.252-32.779-34.123C1144.705,133.958,1127.381,138.853,1115.588,150.16z"/>
		</g>
	</g>
	<g>
		<path fill="#2E1F1C" d="M1194,174v-32.834c0-1.207,1.502-2.186,3.5-2.186l0,0c1.997,0,3.5,0.979,3.5,2.186V174"/>
	</g>
	<g opacity="0.3">
		<circle fill="#FFFFFF" cx="1224.503" cy="230.006" r="18.084"/>
	</g>
</g>
<g>
	<g>
		<path fill="#FFCA36" d="M1313.092,704.19c0-45.177-30.383-82.869-71.823-94.556c-3.559-11.58-14.335-19.635-27.083-19.635h-1.072
			c-12.926,0-23.807,8.298-27.211,20.127c-40.555,12.245-70.093,49.697-70.093,94.248c0,44.598,29.604,82.856,70.226,95.06
			c3.568,11.564,14.34,20.565,27.078,20.565h1.072c12.549,0,23.173-8.85,26.899-20.15
			C1282.618,788.223,1313.092,749.438,1313.092,704.19z"/>
	</g>
	<g>
		<g>
			<g>
				<g>
					<g>
						<circle fill="#2E1F1C" cx="1170.55" cy="712.548" r="8.594"/>
					</g>
					<g>
						<circle fill="#2E1F1C" cx="1259.166" cy="712.548" r="8.594"/>
					</g>
				</g>
				<g>
					<path fill="#2E1F1C" d="M1234.295,732.887c0,10.486-8.502,18.988-18.99,18.988l0,0c-10.486,0-18.988-8.502-18.988-18.988"/>
				</g>
			</g>
			<g>
				<g>
					<ellipse fill="#FF665A" cx="1264.591" cy="738.312" rx="14.769" ry="8.139"/>
				</g>
				<g>
					<ellipse fill="#FF665A" cx="1165.125" cy="738.312" rx="14.769" ry="8.139"/>
				</g>
			</g>
		</g>
		<g>
			<g>
				<ellipse fill="#FF9A55" cx="1264.591" cy="738.312" rx="14.769" ry="8.139"/>
			</g>
			<g>
				<ellipse fill="#FF9A55" cx="1165.125" cy="738.312" rx="14.769" ry="8.139"/>
			</g>
		</g>
	</g>
	<g>
		<g>
			<path fill="#3EBA79" d="M1164.643,601.259c16.577,4.8,33.633,0.102,45.408-10.857l-77.993-22.582
				C1136.158,583.376,1148.063,596.459,1164.643,601.259z"/>
		</g>
		<g>
			<path fill="#30A565" d="M1131.864,567.137c0.058,0.229,0.133,0.452,0.193,0.683l77.993,22.582
				c0.176-0.161,0.357-0.31,0.531-0.475c-3.929-15.857-15.959-29.251-32.779-34.122
				C1160.982,550.936,1143.657,555.831,1131.864,567.137z"/>
		</g>
	</g>
	<g>
		<path fill="#2E1F1C" d="M1210,592v-33.856c0-1.208,1.503-2.187,3.5-2.187l0,0c1.997,0,3.5,0.979,3.5,2.187V592"/>
	</g>
	<g opacity="0.3">
		<circle fill="#FFFFFF" cx="1253.439" cy="654.218" r="18.084"/>
	</g>
</g>
<g>
	<g>
		<g>
			<circle fill="#F27E30" cx="921.397" cy="707.568" r="111.222"/>
		</g>
		<g>
			<g>
				<g>
					<g>
						<g>
							<circle fill="#2E1F1C" cx="877.578" cy="712.91" r="8.595"/>
						</g>
						<g>
							<circle fill="#2E1F1C" cx="966.193" cy="712.91" r="8.595"/>
						</g>
					</g>
					<g>
						<path fill="#2E1F1C" d="M941.321,733.248c0,10.488-8.502,18.99-18.989,18.99l0,0c-10.486,0-18.988-8.502-18.988-18.99"/>
					</g>
				</g>
				<g>
					<g>
						<ellipse fill="#FF665A" cx="971.618" cy="738.674" rx="14.77" ry="8.138"/>
					</g>
					<g>
						<ellipse fill="#FF665A" cx="872.152" cy="738.674" rx="14.77" ry="8.138"/>
					</g>
				</g>
			</g>
			<g>
				<g>
					<ellipse fill="#FF9A55" cx="971.618" cy="738.674" rx="14.77" ry="8.138"/>
				</g>
				<g>
					<ellipse fill="#FF9A55" cx="872.152" cy="738.674" rx="14.77" ry="8.138"/>
				</g>
			</g>
		</g>
		<g>
			<g>
				<path fill="#3EBA79" d="M877.094,608.854c16.578,4.8,33.634,0.102,45.41-10.856l-77.994-22.584
					C848.61,590.971,860.516,604.056,877.094,608.854z"/>
			</g>
			<g>
				<path fill="#30A565" d="M844.316,574.733c0.057,0.229,0.133,0.451,0.193,0.681l77.994,22.584
					c0.174-0.162,0.356-0.311,0.53-0.475c-3.929-15.857-15.959-29.252-32.779-34.123
					C873.435,558.531,856.109,563.427,844.316,574.733z"/>
			</g>
		</g>
		<g>
			<path fill="#2E1F1C" d="M923,598v-32.261c0-1.207,1.002-2.186,3-2.186l0,0c1.998,0,3,0.979,3,2.186V598"/>
		</g>
	</g>
	<g opacity="0.3">
		<circle fill="#FFFFFF" cx="965.891" cy="649.154" r="18.084"/>
	</g>
</g>
<g>
	<g>
		<g>
			<path fill="#FFCA36" d="M367.929,742.643c-13.101,4.126-27.041,6.361-41.505,6.361c-76.252,0-138.066-61.813-138.066-138.066
				c0-41.345,18.19-78.428,46.987-103.729c-3.5-6.175-7.423-10.518-11.328-13.538c-63.6,19.187-109.919,78.22-109.919,148.077
				c0,85.414,69.242,154.655,154.656,154.655c39.195,0,74.979-14.584,102.233-38.618C371.436,752.5,370.116,747.355,367.929,742.643
				z"/>
		</g>
	</g>
	<g>
		<path fill="#2E1F1C" d="M203.915,501.774l21.056-13.041c6.175-3.824,14.428-1.685,18.252,4.492l0,0
			c3.826,6.177,2.065,14.518-4.11,18.344l-21.055,13.041"/>
	</g>
	<g>
		<path fill="#2E1F1C" d="M368.357,740.967c1.916-0.865,4.169-0.017,5.036,1.898l4.567,10.098c0.866,1.916,0.016,4.169-1.899,5.034
			l-8.962,4.054c-1.914,0.866-4.168,0.017-5.035-1.897l-4.565-10.098c-0.868-1.915-0.018-4.168,1.898-5.033L368.357,740.967z"/>
	</g>
	<g>
		<g>
			<g>
				<g>
					<g>
						<circle fill="#2E1F1C" cx="147.386" cy="693.703" r="5.464"/>
					</g>
					<g>
						<circle fill="#2E1F1C" cx="203.727" cy="693.703" r="5.464"/>
					</g>
				</g>
				<g>
					<path fill="#2E1F1C" d="M187.915,706.635c0,6.667-5.406,12.073-12.073,12.073l0,0c-6.668,0-12.073-5.406-12.073-12.073"/>
				</g>
			</g>
			<g>
				<g>
					<ellipse fill="#FF665A" cx="207.177" cy="710.084" rx="9.39" ry="5.173"/>
				</g>
				<g>
					<ellipse fill="#FF665A" cx="143.937" cy="710.084" rx="9.39" ry="5.173"/>
				</g>
			</g>
		</g>
		<g>
			<g>
				<ellipse fill="#FF9A55" cx="207.177" cy="710.084" rx="9.39" ry="5.173"/>
			</g>
			<g>
				<ellipse fill="#FF9A55" cx="143.937" cy="710.084" rx="9.39" ry="5.173"/>
			</g>
		</g>
	</g>
	<g opacity="0.3">
		<circle fill="#FFFFFF" cx="147.479" cy="653.307" r="15.8"/>
	</g>
</g>
</svg>
