
<svg width="223px" height="336px" viewBox="0 0 223 336" version="1.1" xmlns="http://www.w3.org/2000/svg" xmlns:xlink="http://www.w3.org/1999/xlink">
    <!-- Generator: Sketch 51.2 (57519) - http://www.bohemiancoding.com/sketch -->
    <desc>Created with Sketch.</desc>
    <defs></defs>
    <g id="Page-1" stroke="none" stroke-width="1" fill="none" fill-rule="evenodd">
        <g id="flat-kawaii-fruit" transform="translate(-1088.358149, -136.545467)" fill-rule="nonzero">
            <g id="Group" transform="translate(1088.000000, 136.000000)">
                <path d="M180,136.633 L180,102.905 C180,66.029 149.952,37 113.076,37 L108.923,37 C72.045,37 42,66.029 42,102.905 L42,138.054 C17,158.44 0.543,189.694 0.543,224.759 C0.543,286.185 50.408,335.98 111.834,335.98 C173.26,335.98 223.228,286.185 223.228,224.759 C223.228,188.869 206,156.97 180,136.633 Z" id="Shape" fill="#F9B03A"></path>
                <g transform="translate(47.000000, 219.000000)">
                    <g>
                        <g transform="translate(12.000000, 0.000000)" fill="#2E1F1C">
                            <g id="Oval">
                                <circle cx="9.083" cy="9.292" r="8.595"></circle>
                                <circle cx="97.698" cy="9.292" r="8.594"></circle>
                            </g>
                            <path d="M72.827,29.631 C72.827,40.118 64.325,48.62 53.838,48.62 C43.351,48.62 34.849,40.118 34.849,29.631" id="Shape"></path>
                        </g>
                        <g transform="translate(0.000000, 26.000000)" fill="#FF665A" id="Oval">
                            <ellipse cx="115.123" cy="9.057" rx="14.769" ry="8.138"></ellipse>
                            <ellipse cx="15.658" cy="9.057" rx="14.769" ry="8.138"></ellipse>
                        </g>
                    </g>
                    <g transform="translate(0.000000, 26.000000)" fill="#FF9A55" id="Oval">
                        <ellipse cx="115.123" cy="9.057" rx="14.769" ry="8.138"></ellipse>
                        <ellipse cx="15.658" cy="9.057" rx="14.769" ry="8.138"></ellipse>
                    </g>
                </g>
                <g transform="translate(27.000000, 0.000000)" id="Shape">
                    <path d="M33.365,48.281 C49.943,53.081 66.999,48.382 78.776,37.424 L0.781,14.841 C4.882,30.398 16.787,43.481 33.365,48.281 Z" fill="#3EBA79"></path>
                    <path d="M0.588,14.16 C0.645,14.388 0.722,14.612 0.781,14.841 L78.776,37.424 C78.949,37.263 79.131,37.114 79.304,36.95 C75.375,21.092 63.347,7.698 46.525,2.827 C29.705,-2.042 12.381,2.853 0.588,14.16 Z" fill="#30A565"></path>
                </g>
                <path d="M106,38 L106,5.166 C106,3.959 107.502,2.98 109.5,2.98 C111.497,2.98 113,3.959 113,5.166 L113,38" id="Shape" fill="#2E1F1C"></path>
                <g opacity="0.3" transform="translate(118.000000, 75.000000)" fill="#FFFFFF" id="Oval">
                    <circle cx="18.503" cy="19.006" r="18.084"></circle>
                </g>
            </g>
        </g>
    </g>
</svg>