
<svg width="544px" height="273px" viewBox="0 0 544 273" version="1.1" xmlns="http://www.w3.org/2000/svg" xmlns:xlink="http://www.w3.org/1999/xlink">
    <!-- Generator: Sketch 51.2 (57519) - http://www.bohemiancoding.com/sketch -->
    <desc>Created with Sketch.</desc>
    <defs></defs>
    <g id="Page-1" stroke="none" stroke-width="1" fill="none" fill-rule="evenodd">
        <g id="flat-kawaii-fruit" transform="translate(-142.358149, -185.545467)" fill-rule="nonzero">
            <g id="Group" transform="translate(142.000000, 186.000000)">
                <g id="Shape">
                    <g>
                        <path d="M43.427,0.008 C43.427,125.66 145.907,228.904 272.323,228.904 C398.739,228.904 501.217,125.66 501.217,0.008" fill="#EE4230"></path>
                        <path d="M272.322,272.396 C122.675,272.396 0.928,149 0.928,1 L85.927,1 C85.927,104 169.543,187.397 272.323,187.397 C375.102,187.397 458.718,104 458.718,1 L543.717,1 C543.717,149 421.969,272.396 272.322,272.396 Z" fill="#9ABC3C"></path>
                    </g>
                    <g transform="translate(29.000000, 0.000000)">
                        <path d="M14.427,0.008 C14.427,125.66 116.907,228.904 243.323,228.904 C369.739,228.904 472.217,125.66 472.217,0.008" fill="#EE4230"></path>
                        <path d="M243.322,243.459 C109.63,243.459 0.863,135 0.863,1 L27.99,1 C27.99,118 124.587,216.333 243.322,216.333 C362.057,216.333 458.654,118 458.654,1 L485.781,1 C485.781,135 377.015,243.459 243.322,243.459 Z" fill="#FFDAD7"></path>
                    </g>
                    <path d="M43.427,1 C43.427,125 145.907,229.896 272.323,229.896 C398.739,229.896 501.217,125 501.217,1 L43.427,1 Z" fill="#EE4230"></path>
                </g>
                <g transform="translate(174.000000, 68.000000)">
                    <g transform="translate(17.000000, 0.000000)" fill="#2E1F1C">
                        <g id="Oval">
                            <circle cx="13.99" cy="13.236" r="13.062"></circle>
                            <circle cx="148.654" cy="13.236" r="13.061"></circle>
                        </g>
                        <path d="M110.858,44.143 C110.858,60.078 97.938,72.999 82.002,72.999 C66.064,72.999 53.144,60.078 53.144,44.143" id="Shape"></path>
                    </g>
                    <g transform="translate(0.000000, 40.000000)" fill="#FF665A" id="Oval">
                        <ellipse cx="173.898" cy="12.388" rx="22.444" ry="12.365"></ellipse>
                        <ellipse cx="22.745" cy="12.388" rx="22.444" ry="12.365"></ellipse>
                    </g>
                </g>
            </g>
        </g>
    </g>
</svg>